<svg width="120" height="120" viewBox="0 0 120 120" fill="none" xmlns="http://www.w3.org/2000/svg">
<path fill-rule="evenodd" clip-rule="evenodd" d="M5.76404 0.110195C5.6791 0.166979 5.35477 0.291698 5.04331 0.387336C4.23238 0.636315 2.97779 1.49866 2.22204 2.32664C1.38589 3.24267 0.61141 4.57182 0.364095 5.5152C0.256912 5.92385 0.130782 6.30732 0.0837286 6.36732C-0.0349866 6.51882 -0.0242772 10.1811 0.0956735 10.4266C0.149214 10.5364 0.269988 10.9107 0.363889 11.2584C0.762764 12.7349 2.10704 14.615 3.4474 15.5708C3.78717 15.8131 4.50482 16.1834 5.04228 16.3936C5.97676 16.7593 6.08436 16.7759 7.51337 16.7751C8.91169 16.7743 9.06675 16.7516 9.934 16.4203C12.1656 15.5678 13.997 13.5222 14.7234 11.0706C14.9995 10.1388 15.0257 9.91177 15.0281 8.42111C15.0304 6.90999 15.0074 6.7101 14.7131 5.68958C14.5384 5.08392 14.3388 4.52434 14.2697 4.44618C14.2005 4.36801 14.1174 4.2264 14.0849 4.13156C13.9546 3.75028 13.0453 2.52251 12.5276 2.02869C11.7792 1.31486 10.8016 0.692179 9.96376 0.395611C9.58033 0.259856 9.23541 0.113872 9.19711 0.0711106C9.09291 -0.0452176 5.94278 -0.00935223 5.76404 0.110195ZM22.497 20.644C20.4238 21.143 18.2689 22.5956 16.8686 24.4379C15.8165 25.8222 15.1596 27.1773 14.6486 29.018L14.3614 30.0525L14.3334 47.5535L14.3055 65.0545H18.5291H22.7528V56.3183V47.5822H38.9178H55.0829V56.3183V65.0545H59.3069H63.5309L63.5022 47.7259L63.4735 30.3974L63.2001 29.2917C62.1882 25.1995 59.5149 22.0797 55.953 20.8341L55.0314 20.5118L39.1237 20.4913C25.2959 20.4736 23.1221 20.4935 22.497 20.644ZM70.1153 25.4537V30.2232L89.6685 30.2528L109.222 30.2824L109.61 30.6334C110.361 31.3123 110.425 31.5895 110.425 34.1907C110.425 36.293 110.407 36.5285 110.212 36.9434C109.908 37.5909 109.39 38.016 108.737 38.1541C108.373 38.2311 101.653 38.2714 89.1493 38.2714H70.1153V51.7779V65.2843H74.3368H78.5582V56.5531V47.8218L94.1827 47.7797C108.091 47.7424 109.886 47.7174 110.528 47.5527C111.547 47.2909 112.306 46.9779 113.229 46.4395C115.883 44.8905 117.775 42.2174 118.586 38.8698C118.851 37.7781 118.856 37.6773 118.856 34.1907C118.856 30.6816 118.852 30.6097 118.579 29.4778C117.758 26.0775 115.774 23.3496 112.999 21.8069C112.156 21.3385 111.187 20.9747 110.329 20.805C109.916 20.7234 103.302 20.6842 89.9166 20.6842H70.1153V25.4537ZM54.2238 30.4096C55.0245 31.132 55.0275 31.1476 55.063 34.7942L55.0946 38.0415H38.9193H22.7438L22.7741 34.728L22.8043 31.4146L23.0617 30.9857C23.2032 30.7499 23.5044 30.4307 23.7309 30.2764L24.1428 29.9959L38.9855 30.0243L53.8283 30.0525L54.2238 30.4096ZM15.6484 79.9403V84.7107H39.5356H63.4228V79.9403V75.17H39.5356H15.6484V79.9403ZM79.7588 86.4999C85.1861 92.6049 89.6266 97.645 89.6266 97.6999C89.6266 97.7549 85.1861 102.795 79.7588 108.9L69.891 120H75.0223H80.1536L87.5413 111.753L94.9292 103.505L102.317 111.753L109.705 120H114.852H120L110.013 108.85L100.026 97.6999L110.013 86.5499L120 75.3998H114.852H109.704L102.301 83.6655L94.8972 91.9312L87.5394 83.6655L80.1815 75.3998H75.0362H69.891L79.7588 86.4999ZM15.6484 106.379V119.885H39.5356H63.4228V115.172V110.459H43.757H24.0913V106.436V102.413H43.757H63.4228V97.6425V92.8721H39.5356H15.6484V106.379Z" fill="url(#paint0_linear_1326_182)"/>
<defs>
<linearGradient id="paint0_linear_1326_182" x1="2.93442" y1="3.44846" x2="138.433" y2="114.028" gradientUnits="userSpaceOnUse">
<stop stop-color="#DB06BD"/>
<stop offset="1" stop-color="#DD4426"/>
</linearGradient>
</defs>
</svg>
