<svg width="31" height="31" viewBox="0 0 31 31" fill="none" xmlns="http://www.w3.org/2000/svg">
<path d="M1.29177 12.9152C0.949175 12.9152 0.620607 12.7791 0.378352 12.5368C0.136098 12.2946 0 11.966 0 11.6234V1.29177C0 0.949174 0.136098 0.620607 0.378352 0.378352C0.620607 0.136098 0.949175 0 1.29177 0H11.626C11.9686 0 12.2971 0.136098 12.5394 0.378352C12.7816 0.620607 12.9177 0.949174 12.9177 1.29177V11.6234C12.9177 11.966 12.7816 12.2946 12.5394 12.5368C12.2971 12.7791 11.9686 12.9152 11.626 12.9152H1.29177ZM19.3766 12.9152C19.034 12.9152 18.7054 12.7791 18.4632 12.5368C18.2209 12.2946 18.0848 11.966 18.0848 11.6234V1.29177C18.0848 0.949174 18.2209 0.620607 18.4632 0.378352C18.7054 0.136098 19.034 0 19.3766 0H29.7082C30.0508 0 30.3794 0.136098 30.6216 0.378352C30.8639 0.620607 31 0.949174 31 1.29177V11.6234C31 11.966 30.8639 12.2946 30.6216 12.5368C30.3794 12.7791 30.0508 12.9152 29.7082 12.9152H19.3766ZM1.29177 31C0.949175 31 0.620607 30.8639 0.378352 30.6216C0.136098 30.3794 0 30.0508 0 29.7082V19.374C0 19.0314 0.136098 18.7029 0.378352 18.4606C0.620607 18.2184 0.949175 18.0823 1.29177 18.0823H11.626C11.9686 18.0823 12.2971 18.2184 12.5394 18.4606C12.7816 18.7029 12.9177 19.0314 12.9177 19.374V29.7082C12.9177 30.0508 12.7816 30.3794 12.5394 30.6216C12.2971 30.8639 11.9686 31 11.626 31H1.29177ZM19.3766 31C19.034 31 18.7054 30.8639 18.4632 30.6216C18.2209 30.3794 18.0848 30.0508 18.0848 29.7082V19.374C18.0848 19.0314 18.2209 18.7029 18.4632 18.4606C18.7054 18.2184 19.034 18.0823 19.3766 18.0823H29.7082C30.0508 18.0823 30.3794 18.2184 30.6216 18.4606C30.8639 18.7029 31 19.0314 31 19.374V29.7082C31 30.0508 30.8639 30.3794 30.6216 30.6216C30.3794 30.8639 30.0508 31 29.7082 31H19.3766Z" fill="white"/>
</svg>
