<svg width="46" height="35" viewBox="0 0 46 35" fill="none" xmlns="http://www.w3.org/2000/svg">
<path d="M38.9218 2.90862C36.0084 1.55272 32.854 0.568603 29.5682 0C29.5104 0.000821641 29.4553 0.0244035 29.4149 0.0656085C29.0206 0.787297 28.5606 1.72768 28.2539 2.44937C24.7687 1.92483 21.2245 1.92483 17.7393 2.44937C17.4326 1.70581 16.9726 0.787297 16.5564 0.0656085C16.5345 0.0218698 16.4688 0 16.4031 0C13.1173 0.568603 9.98482 1.55272 7.0495 2.90862C7.0276 2.90862 7.00569 2.93049 6.98379 2.95236C1.02553 11.8532 -0.617372 20.5134 0.193127 29.0862C0.193127 29.13 0.215032 29.1737 0.258843 29.1956C4.20181 32.0823 7.99144 33.8319 11.7373 34.9909C11.803 35.0128 11.8687 34.9909 11.8906 34.9472C12.7668 33.7444 13.5554 32.476 14.2345 31.1419C14.2783 31.0545 14.2345 30.967 14.1468 30.9451C12.8982 30.464 11.7153 29.8954 10.5544 29.2393C10.4667 29.1956 10.4667 29.0644 10.5325 28.9987C10.7734 28.8238 11.0144 28.627 11.2553 28.452C11.2991 28.4083 11.3649 28.4083 11.4087 28.4301C18.9441 31.8636 27.071 31.8636 34.5188 28.4301C34.5626 28.4083 34.6284 28.4083 34.6722 28.452C34.9131 28.6488 35.1541 28.8238 35.395 29.0206C35.4827 29.0862 35.4827 29.2174 35.3731 29.2612C34.2341 29.9391 33.0293 30.4859 31.7807 30.967C31.693 30.9889 31.6711 31.0982 31.693 31.1638C32.394 32.4978 33.1826 33.7663 34.0369 34.9691C34.1026 34.9909 34.1683 35.0128 34.2341 34.9909C38.0018 33.8319 41.7914 32.0823 45.7344 29.1956C45.7782 29.1737 45.8001 29.13 45.8001 29.0862C46.7639 19.1794 44.201 10.5848 39.0094 2.95236C38.9875 2.93049 38.9656 2.90862 38.9218 2.90862ZM15.3735 23.8594C13.1173 23.8594 11.2334 21.7819 11.2334 19.2231C11.2334 16.6644 13.0735 14.5868 15.3735 14.5868C17.6955 14.5868 19.5356 16.6863 19.5137 19.2231C19.5137 21.7819 17.6736 23.8594 15.3735 23.8594ZM30.6416 23.8594C28.3853 23.8594 26.5015 21.7819 26.5015 19.2231C26.5015 16.6644 28.3415 14.5868 30.6416 14.5868C32.9635 14.5868 34.8036 16.6863 34.7817 19.2231C34.7817 21.7819 32.9635 23.8594 30.6416 23.8594Z" fill="#fff"/>
</svg>
