<svg width="14" height="11" viewBox="0 0 14 11" fill="none" xmlns="http://www.w3.org/2000/svg">
<path fill-rule="evenodd" clip-rule="evenodd" d="M2.1 0C1.54305 0 1.0089 0.217299 0.615076 0.604092C0.221249 0.990886 0 1.51549 0 2.0625V2.75H14V2.0625C14 1.51549 13.7788 0.990886 13.3849 0.604092C12.9911 0.217299 12.457 0 11.9 0H2.1ZM14 4.125H0V8.9375C0 9.48451 0.221249 10.0091 0.615076 10.3959C1.0089 10.7827 1.54305 11 2.1 11H11.9C12.457 11 12.9911 10.7827 13.3849 10.3959C13.7788 10.0091 14 9.48451 14 8.9375V4.125ZM4.2 7.5625C4.2 7.38016 4.27375 7.2053 4.40503 7.07636C4.5363 6.94743 4.71435 6.875 4.9 6.875H7.9898L7.9051 6.79181C7.77375 6.6629 7.69992 6.48802 7.69986 6.30565C7.69979 6.12328 7.77349 5.94835 7.90475 5.81934C8.03601 5.69034 8.21406 5.61783 8.39975 5.61777C8.58544 5.6177 8.76355 5.69009 8.8949 5.819L10.1745 7.07644C10.3057 7.20536 10.3795 7.3802 10.3795 7.5625C10.3795 7.7448 10.3057 7.91964 10.1745 8.04856L8.8949 9.30531C8.83033 9.37098 8.75309 9.42335 8.66768 9.45938C8.58228 9.49541 8.49043 9.51438 8.39748 9.51517C8.30453 9.51597 8.21236 9.49857 8.12633 9.464C8.0403 9.42943 7.96215 9.37839 7.89642 9.31383C7.8307 9.24928 7.77872 9.17252 7.74353 9.08803C7.70833 9.00354 7.69062 8.91301 7.69142 8.82172C7.69223 8.73044 7.71154 8.64022 7.74823 8.55635C7.78491 8.47247 7.83824 8.39661 7.9051 8.33319L7.9898 8.25H4.9C4.71435 8.25 4.5363 8.17757 4.40503 8.04864C4.27375 7.9197 4.2 7.74484 4.2 7.5625Z" fill="white"/>
</svg>
